<?xml version="1.0" encoding="utf-8"?><svg width="17" height="14" xmlns="http://www.w3.org/2000/svg" viewBox="0 0 17 14"><path d="M1.588 6.23c4.295-1.871 7.159-3.105 8.592-3.701C14.271.827 15.122.53 15.676.522c.122-.002.394.028.57.171.15.12.19.284.21.399a2.6 2.6 0 0 1 .025.58c-.222 2.33-1.181 7.983-1.67 10.592-.206 1.104-.612 1.474-1.006 1.51-.856.08-1.505-.565-2.334-1.108-1.297-.85-2.03-1.38-3.288-2.209-1.454-.958-.511-1.485.318-2.346.216-.225 3.986-3.654 4.06-3.965.008-.039.017-.184-.07-.26-.086-.077-.213-.051-.304-.03-.13.03-2.202 1.399-6.215 4.107-.588.404-1.12.6-1.598.59-.526-.01-1.538-.297-2.29-.541-.923-.3-1.656-.459-1.592-.968.033-.266.399-.537 1.096-.814Z"/></svg>