<?xml version="1.0" encoding="utf-8"?><svg xmlns="http://www.w3.org/2000/svg" width="36" height="36" viewBox="0 0 36 36"><path fill-rule="evenodd" d="M18 0c9.941 0 18 8.059 18 18 0 9.6-7.516 17.445-16.984 17.972V36H18C8.06 36 0 27.941 0 18S8.059 0 18 0ZM9.763 27.986l.03.067c.341.764.72 1.48 1.13 2.137 1.926 3.087 4.455 4.794 7.077 4.794v-5.756c-2.968 0-5.769-.448-8.237-1.242Zm16.475 0-.186.059c-2.138.668-4.518 1.078-7.037 1.165v5.69c2.254-.38 4.387-2.022 6.063-4.709.422-.677.811-1.415 1.16-2.205ZM1.69 22.755l.061.203a17.021 17.021 0 0 0 11.493 11.35c-1.969-1.478-3.626-3.846-4.77-6.78-2.936-1.145-5.305-2.803-6.784-4.772Zm32.62 0-.052.068c-1.481 1.94-3.829 3.572-6.73 4.704-1.145 2.935-2.802 5.303-4.772 6.782A17.022 17.022 0 0 0 34.31 22.757ZM18 18.272H7.791l.003.243c.054 3.015.587 5.818 1.468 8.226 2.544.93 5.529 1.472 8.738 1.472v-9.941Zm10.21 0h-9.195v9.923c2.824-.102 5.45-.623 7.724-1.454.904-2.473 1.442-5.362 1.472-8.468Zm-21.435 0H1.022c.113 2.526 1.807 4.948 4.788 6.807.677.422 1.416.811 2.206 1.16-.77-2.392-1.215-5.098-1.241-7.966Zm28.203 0h-5.752v.106c-.037 2.829-.48 5.497-1.24 7.861.789-.35 1.527-.738 2.204-1.16 2.98-1.86 4.675-4.281 4.788-6.807ZM8.016 9.761l-.069.032c-.764.341-1.48.72-2.137 1.13-2.794 1.743-4.458 3.98-4.748 6.333h5.72c.069-2.692.506-5.233 1.234-7.494ZM18 7.79c-3.21 0-6.194.542-8.738 1.472-.859 2.347-1.386 5.068-1.463 7.995H18V7.789Zm1.015.018v9.449h9.187c-.077-2.927-.604-5.648-1.462-7.994-2.274-.832-4.9-1.353-7.725-1.455Zm8.97 1.956.06.185c.691 2.215 1.107 4.69 1.173 7.309l5.72-.001c-.29-2.353-1.954-4.59-4.748-6.333a17.655 17.655 0 0 0-2.205-1.16ZM13.245 1.69l-.204.061a17.021 17.021 0 0 0-11.35 11.493c1.478-1.969 3.846-3.626 6.782-4.77 1.145-2.937 2.802-5.305 4.771-6.784Zm9.512 0 .067.052c1.94 1.482 3.573 3.83 4.704 6.732 2.935 1.144 5.303 2.801 6.782 4.77A17.021 17.021 0 0 0 22.757 1.691ZM18 1.017c-2.622 0-5.151 1.707-7.077 4.794a17.656 17.656 0 0 0-1.16 2.206C12.23 7.222 15.03 6.773 18 6.773V1.016Zm1.015.085v5.69c2.593.09 5.039.522 7.224 1.225a17.82 17.82 0 0 0-1.161-2.206c-1.676-2.687-3.809-4.328-6.063-4.709Z"/></svg>