<svg xmlns="http://www.w3.org/2000/svg" width="168" height="168" viewBox="0 0 168 168"><g fill="none" fill-rule="evenodd"><path fill="#00558F" d="M123.574 25.175C147.423 26.851 157 47.714 157 64.095c0 41.148-54.045 55.571-72.989 88.914-58.586-18.508-76.679-58.494-72.416-84.308 3.99-24.185 21.68-32.401 34.607-34.392 18.032-2.777 29.67 9.12 29.67 9.12 4.377-3.833 19.498-20.239 47.702-18.254Z"/><path fill="#FFF" fill-rule="nonzero" d="M74.438 95.545c-2.83-2.651-6.381-1.778-10.068.152-4.851 2.546-6.194 2.133-6.18 2.464.13 2.692 1.737 1.812 1.737 1.812-.355 5.523-2.823 16.567-3.191 18.486-.362 1.925.531 2.668 2.113 3.057 1.572.392 5.257.448 10.523-3.753 5.262-4.202 5.747-7.73 5.339-9.419-.557-2.32-3.418-2.635-3.418-2.635 3.647-3.587 5.726-7.746 3.145-10.164Zm-8.255 19.618c-2.208 2.08-4.683 2.507-4.683 2.507.375-1.88.861-4.3 1.364-6.76a219.06 219.06 0 0 0 3.84-1.618c.382-.175 1.61-.307 2.1.89.492 1.202-.42 2.897-2.621 4.98Zm.661-10.084c-1.09.794-2.47 1.254-3.08 1.432.792-3.89 1.44-7.028 1.44-7.028.774-.311 1.72-.762 2.062-.925.345-.16 2.344-1.292 2.979.578.639 1.875-1.953 4.897-3.4 5.943Zm25.537 1.407c-2.22-.923-3.22-3.125-2.02-9.209.271-1.385 1.22-3.876 1.254-5.382.033-1.407-1.19-.82-3.041.256 0 0-.08.438-.131.9l-.002-.002c-.266-.156-2.215-1.15-3.686-.505-2.457 1.08-3.5 2.148-5.378 5.388-1.86 3.242-3.209 7.768-2.513 10.085.68 2.314 3.468 3.262 4.895 2.678 1.432-.586 2.627-2.152 3.35-4.05.24-.638.313-.812.572-.154.61 1.563 2.905 2.352 3.924 2.347 1.444-.011 3.766-1.943 2.776-2.354v.002Zm-9.546-.714c-.595.591-.864-.13-.972-.605-.203-.864-.095-1.988 1.057-4.521 1.154-2.531 3.586-4.692 3.586-4.692-1.034 6.075-3.077 9.224-3.671 9.818Zm33.248-7.286c.663.324-.532 1.931-2.33 2.231-.396.066-2.864-.572-3.82-2.684-.247-.535-.5-.122-.575.106-.116.37-1.236 3.693-3.335 4.24-2.102.548-3.895-1.28-4.153-1.722-.27-.44-.34-.058-.407.093-.078.155-1.373 3.819-3.378 4.433-2.006.613-4.452-.983-4.972-2.91-.517-1.924.244-5.35 2.141-10.745.423-1.198.533-1.395 1.55-1.946 1.757-.964 3.793-1.514 3.2.24-.638 1.882-1.516 5.783-1.75 7.111-.23 1.325-.424 2.312.031 3.424.446 1.108 2.003-1 2.588-3.263.581-2.266 1.816-7.798 1.964-8.23.153-.434.153-.633 1.145-1.103 1.46-.701 3.337-.923 3.104.117-.288 1.27-.95 6.45-1.01 7.486-.053 1.04.146 1.807.313 2.103.164.295.394.316.752.088.363-.227 1.229-1.227 1.891-3.776.705-2.71 1.173-6.27 1.46-7.097.306-.87.908-1.16 1.335-1.276 2.932-.8 2.92-.881 2.963.997.051 2.448-1.606 10.641 1.293 12.082Zm-68.288-23.69c-2.118 2.031-2.388 5.254-2.491 6.378-.092 1.065.692 2.88 2.115 2.816 2.053-.096 4.342-2.877 4.838-3.49.316-.391.403-.683.709.202.438 1.272.117 2.816-.883 4.429-1.04 1.666-4 3.689-6.483 3.393-2.337-.272-3.94-1.57-4.688-4.115-.75-2.54.479-5.947 1.596-8.134 1.045-2.027 3.527-5.86 6.386-6.677 2.859-.823 4.338.12 4.69 1.229.755 2.416-.61 3.83-.72 3.995-.106.162-.431.368-.46.071-.04-.36-1.678-2.91-4.61-.097h.001Zm11.213 10.282c-3.523 2.14-3.982 2.005-3.675-1.024.317-3.024 1.727-13.382 1.745-14.745 0-.644.47-1.77 1.339-2.073 1.027-.351 2.371-.947 2.687.088.306 1.037-.36 3.897-.49 4.573-.129.677.398.71.705.256.168-.247.44-.663.75-1.163.801-2.047 1.826-4.007 2.998-4.656 2.62-1.453 4.518-.638 4.873.467.758 2.42-.61 3.833-.714 3.998-.105.164-.256.272-.466.071-1.222-1.171-2.164-1.165-3.524.046-1.34 1.414-2.645 3.206-2.645 3.206s1.019.232 2.25 2.47c1.248 2.248 2.177 3.831 4.418 3.82.642-.002.905.207.418.973-.686 1.083-1.945 2.235-4.047 1.643-2.106-.6-3.927-3.669-4.26-4.26-.326-.59-.75-.746-.985.025-.236.773-.335 1.859-.634 4.157-.071.54.011 1.668-.743 2.126v.002Zm24.796-10.7c2.885-4.277 3.62-7.547 3.174-9.565-.439-2.015-2.737-4.382-4.52-3.744-1.773.634-3.705 4.05-3.984 4.467-.457.668-.866.728-.803-.099.057-.83 1-2.871.4-3.358-.592-.482-2.624.282-3.247.427-.313.074-.988.323-1.145 1.63-.085.67-.892 6.773-1.312 10.308-.415 3.54-1.265 12.923-1.408 15.483-.118 2.05 2.45.683 3.471-.118.246-.199 1.149-.791 1.097-1.416-.057-.631.06-6.502.25-7.601.189-1.096.335-1.034 1.072-1.161.742-.13 4.079-.977 6.953-5.252h.002Zm-7.462 1.452c1.298-5.794 3.317-8.544 4.052-9.514.736-.972 1.257-.635 1.497-.054.229.58.44 2.55-.742 5.027-1.184 2.478-3.167 4.287-3.936 4.968-.775.673-1.028.252-.871-.427Zm16.186-.198c.88-.035 2.98-.04 5.834-2.926 2.857-2.888 2.058-4.472 1.794-4.937-.064-.117-.305-.38-.747.268-1.058 1.567-3.308 2.957-5.11 3.497-1.802.546-2.14-1.667-2.143-1.962-.01-.258.156-.414.446-.558.289-.145 1.738-.53 3.22-1.46 1.491-.93 5.874-4.558 4.868-7.574-1-3.02-3.294-2.943-4.35-2.667-1.249.332-3.409 1.708-5.45 5.014-2.008 3.253-3.048 6.506-2.886 9.42.174 2.951 2.707 3.953 4.524 3.885Zm.485-9.974c1.072-3.074 2.205-4.342 2.807-4.865.581-.51.825.017.982.753.16.74.07 1.39-.505 2.3-.565.91-1.802 1.961-2.459 2.306-.66.344-1.037.12-.824-.494Zm50.419-8.938c-1.06 1.576-3.302 3-5.113 3.503-1.644.463-1.954-1.615-1.951-1.915 0-.447.261-.554.58-.658.298-.097 1.581-.294 3.064-1.226 1.484-.932 5.635-4.638 4.564-7.632-.921-2.565-3.119-2.647-4.167-2.37-1.254.328-3.117 1.494-5.152 4.796-2.01 3.257-3.338 6.29-2.791 9.158.546 2.859 2.59 4.397 4.361 3.982.858-.2 2.722-.054 5.553-2.962 2.639-2.706 1.959-4.425 1.688-4.887-.067-.123-.2-.434-.637.211h.001Zm-6.144-2.383c1.059-3.073 2.159-4.16 2.761-4.68.586-.511.767.088.866.846.099.75-.024 1.432-.478 2.162-.568.916-1.71 2.008-2.368 2.348-.659.344-1.104.248-.782-.676h.001Zm-22.057 5.637c-1.155 4.504.045 8.282.137 8.675.09.39.022.903-.755 1.617-.792.732-2.585 2.678-3.432-.534-.215-.825-.387-4.97-.263-6.343a43.328 43.328 0 0 1-4.672 1.46c-.379 3.255-.124 5.234-.055 5.518.085.373.122 1.17-.733 1.774-.862.611-2.952 2.355-3.453-.024-.155-.746.274-5.453.394-6.661a1.9 1.9 0 0 1-.26-.026c-1.16-.187-1.89-1.344-.602-1.74.372-.117.757-.237 1.157-.36.582-3.394 1.64-7.002 1.7-7.395.174-1.074 2.093-1.477 3.266-1.417 1.175.06.39 3.008-.839 7.34a5.452 5.452 0 0 0-.075.266c1.85-.536 3.539-1.015 4.509-1.292.551-3.346 1.434-6.693 1.489-7.074.161-1.125 1.893-1.497 3.188-1.66 1.212-.147.461 3.372-.701 7.876Zm15.701-4.168c-1.156 4.505-.042 7.895.047 8.285.092.387-.011 1.107-.757 1.696-.757.589-2.994 2.26-3.336-.222-.117-.853-.39-4.97-.266-6.345a42.942 42.942 0 0 1-4.675 1.46c-.373 3.258-.116 5.235-.051 5.519.089.37-.257 1.115-.359 1.263-.738 1.122-2.742 3.145-3.867.756-.321-.684.318-5.724.435-6.93a2.045 2.045 0 0 1-.254-.026c-1.168-.19-1.898-1.341-.61-1.742.373-.116.755-.235 1.156-.357.585-3.397 1.641-7.003 1.7-7.395.169-1.08 1.958-1.295 3.12-1.172 1.097.12.538 2.761-.69 7.091-.03.09-.045.18-.075.272a491.9 491.9 0 0 1 4.513-1.295c.544-3.346 1.347-6.15 1.399-6.54.161-1.118 2.151-1.504 3.199-1.474 1.247.037.533 2.653-.629 7.156ZM41.844 89.812c-.47.976-.776 1.617-1.841 2.239-1.183.69-2.922.291-4.003-.356-1.476-.886-2.029-2.3-2.27-4.064-.098-.7-.149-1.416-.148-2.125 0-.746.086-1.494.132-2.24.022-.345-.022-.644.088-1.333-.107.202-.566 1.344-.663 1.551-.773 1.653-3.31 8.007-5.232 10.305-.563.673-1.818 1.776-2.619 1.809-1.044.04-2.3-.532-2.793-1.494-.535-1.046-.5-2.044-.442-3.244.065-1.337.366-3.017.58-4.334.412-2.518 2.142-11.546 2.603-13.71.294-1.379 2.069-10.576-.507-12.27.543-.802 1.858-1.396 2.79-1.21 1.12.224 1.684.404 2.582 1.653.861 1.163.819 3.217.776 4.334-.13 2.144-.751 4.1-1.053 6.163-.199 1.363-2.81 12.891-2.976 14.26-.068.572.152 1.05.554.439 1.88-2.86 5.172-9.695 8.916-20.224.462-1.398.612-3.534 1.443-4.377.655-.664 3.97-1.706 4.308-.946.378.85-1.045 5.208-1.308 6.71-.232 1.311-.573 2.603-.858 3.904-.527 2.41-1.136 4.805-1.55 7.237-.412 2.42-.93 4.844-.489 7.35.42 3.205 3.63 3.836 3.98 3.972Z"/></g></svg>