<svg width="146" height="128" viewBox="0 0 146 128" fill="none" xmlns="http://www.w3.org/2000/svg">
<path fill-rule="evenodd" clip-rule="evenodd" d="M112.574 0.165985C136.423 1.84148 146 22.7044 146 39.0862C146 80.2338 91.9546 94.6571 73.0113 128C14.4251 109.492 -3.66789 69.5053 0.594698 43.6921C4.5859 19.5063 22.2755 11.2905 35.2021 9.29922C53.2341 6.52293 64.8715 18.4196 64.8715 18.4196C69.2492 14.5864 84.3699 -1.81942 112.574 0.165985Z" fill="#00558F"/>
<path d="M63.438 70.5361C60.6073 67.8846 57.0568 68.7575 53.3702 70.6872C48.5186 73.2338 47.1764 72.8208 47.1894 73.1512C47.3203 75.8438 48.9265 74.9632 48.9265 74.9632C48.5722 80.4871 46.1038 91.5302 45.736 93.45C45.3743 95.3751 46.2674 96.1173 47.8489 96.5069C49.4214 96.8982 53.1062 96.9545 58.3719 92.754C63.6343 88.5518 64.119 85.0239 63.711 83.3349C63.1542 81.0144 60.2925 80.6998 60.2925 80.6998C63.9395 77.1127 66.0192 72.9538 63.438 70.5355V70.5361ZM55.183 90.1535C52.9747 92.2344 50.5001 92.6603 50.5001 92.6603C50.8753 90.7809 51.3611 88.3608 51.8644 85.9015C53.0577 85.4164 55.3585 84.4386 55.7044 84.2828C56.0858 84.1076 57.3141 83.9758 57.8038 85.1721C58.2958 86.3748 57.384 88.0696 55.183 90.1535ZM55.8443 80.07C54.7548 80.8638 53.3736 81.3237 52.7637 81.5012C53.5564 77.6112 54.2036 74.4735 54.2036 74.4735C54.9782 74.1624 55.9239 73.7113 56.2658 73.5484C56.6105 73.3879 58.61 72.2567 59.2448 74.1267C59.8835 76.0019 57.2921 79.0237 55.8443 80.0694V80.07ZM81.3809 81.4766C79.1602 80.5539 78.1615 78.3517 79.361 72.2678C79.6324 70.8829 80.5814 68.3919 80.6147 66.8857C80.648 65.4791 79.4254 66.0661 77.5736 67.1417C77.5736 67.1417 77.4941 67.5799 77.4427 68.0421L77.4405 68.0398C77.1753 67.8834 75.226 66.8892 73.7551 67.5342C71.2979 68.6139 70.2542 69.6825 68.377 72.9228C66.5169 76.1642 65.1684 80.6904 65.8641 83.008C66.5434 85.3215 69.3322 86.2699 70.7591 85.6859C72.1905 85.0994 73.3861 83.5341 74.1094 81.6365C74.3492 80.9974 74.422 80.8234 74.6809 81.4819C75.2903 83.0443 77.5855 83.834 78.605 83.8282C80.0488 83.8176 82.3711 81.8855 81.3809 81.4748V81.4766ZM71.8351 80.7625C71.2404 81.3536 70.9713 80.633 70.8629 80.1579C70.6604 79.2932 70.7676 78.1695 71.9197 75.6364C73.0735 73.1056 75.5058 70.945 75.5058 70.945C74.4716 77.0201 72.4292 80.169 71.8345 80.7625H71.8351ZM105.083 73.4764C105.746 73.8009 104.551 75.4079 102.753 75.7079C102.357 75.7735 99.8892 75.1355 98.9323 73.0241C98.6857 72.4887 98.433 72.9017 98.3585 73.1296C98.2422 73.4998 97.1217 76.8227 95.0234 77.3705C92.9206 77.9176 91.1281 76.0892 90.8697 75.6481C90.6006 75.207 90.5295 75.5901 90.4635 75.7407C90.3845 75.8953 89.0902 79.5592 87.0845 80.1737C85.0787 80.7871 82.6329 79.1907 82.1127 77.2638C81.5964 75.3399 82.357 71.914 84.2544 66.5184C84.677 65.3209 84.787 65.1235 85.8037 64.5728C87.5607 63.6085 89.5975 63.059 89.0045 64.813C88.3664 66.6947 87.4884 70.5958 87.2543 71.9239C87.0241 73.2485 86.8295 74.2356 87.2853 75.3476C87.7305 76.4554 89.2883 74.3469 89.8728 72.0844C90.4545 69.8184 91.6895 64.2869 91.8368 63.8546C91.9897 63.4205 91.9897 63.2213 92.9821 62.7514C94.4423 62.0502 96.3194 61.8287 96.0858 62.8686C95.7981 64.1393 95.1368 69.3181 95.0765 70.355C95.0229 71.3949 95.2215 72.1618 95.389 72.4576C95.5532 72.7523 95.7829 72.7734 96.1411 72.5455C96.5039 72.3182 97.37 71.3187 98.0324 68.7698C98.7365 66.0597 99.2053 62.4989 99.4914 61.6723C99.7978 60.8029 100.4 60.5118 100.827 60.3969C103.759 59.5967 103.747 59.5153 103.79 61.3935C103.841 63.8417 102.184 72.0346 105.083 73.4758L105.083 73.4764ZM36.795 49.7862C34.6769 51.8179 34.4067 55.0406 34.304 56.1648C34.212 57.2299 34.9963 59.0454 36.4192 58.9804C38.4718 58.8843 40.7608 56.1033 41.2573 55.4911C41.5727 55.0992 41.6596 54.8075 41.9659 55.6927C42.4037 56.9645 42.0827 58.5082 41.0829 60.1216C40.0425 61.7877 37.0833 63.8106 34.6002 63.5142C32.2627 63.243 30.6592 61.9441 29.9116 59.3998C29.1624 56.8591 30.3906 53.453 31.5078 51.2661C32.5527 49.2391 35.0352 45.4047 37.8935 44.5887C40.7529 43.7661 42.2317 44.7093 42.5843 45.8172C43.3392 48.2338 41.9744 49.6468 41.8649 49.8126C41.7583 49.9743 41.4327 50.1811 41.4034 49.8841C41.3645 49.5244 39.726 46.9742 36.7944 49.7862H36.795ZM48.0075 60.0683C44.4845 62.2078 44.0264 62.0736 44.3333 59.0448C44.6499 56.0207 46.0598 45.6631 46.0784 44.2993C46.0784 43.656 46.5478 42.5289 47.4167 42.2271C48.4442 41.8756 49.7881 41.2798 50.1035 42.315C50.4104 43.3514 49.7441 46.212 49.6149 46.8881C49.4851 47.5647 50.0121 47.5975 50.319 47.1441C50.4866 46.8963 50.7591 46.4803 51.0683 45.9806C51.87 43.9337 52.8952 41.9735 54.0665 41.3244C56.6878 39.8721 58.5852 40.687 58.9401 41.7919C59.6978 44.2108 58.3308 45.6244 58.2264 45.7896C58.1214 45.9537 57.9702 46.0615 57.7603 45.8611C56.5377 44.6894 55.596 44.6953 54.2363 45.9068C52.8963 47.321 51.5907 49.1131 51.5907 49.1131C51.5907 49.1131 52.6097 49.3445 53.8419 51.5818C55.0888 53.8309 56.0181 55.4138 58.2585 55.4032C58.9006 55.4009 59.1641 55.6101 58.6766 56.3752C57.9905 57.4584 56.7318 58.6107 54.6296 58.019C52.5239 57.4191 50.7027 54.3499 50.3709 53.7582C50.0442 53.1694 49.6194 53.013 49.3852 53.7834C49.1488 54.5567 49.0501 55.6423 48.7505 57.9411C48.68 58.4801 48.7624 59.6084 48.0075 60.0671V60.0683ZM72.8038 49.3691C75.6892 45.0913 76.4249 41.8212 75.9781 39.8041C75.5391 37.7888 73.2405 35.4214 71.4587 36.0594C69.6854 36.6939 67.7525 40.1099 67.4737 40.5265C67.0167 41.1943 66.6077 41.2546 66.6709 40.428C66.7279 39.5985 67.6712 37.5562 67.0703 37.07C66.479 36.5873 64.4468 37.3518 63.8239 37.4971C63.5113 37.5703 62.836 37.8199 62.6791 39.1275C62.5939 39.7965 61.7865 45.8992 61.3668 49.4347C60.9515 52.9738 60.1024 62.3572 59.9591 64.9179C59.8411 66.9677 62.4089 65.6009 63.4301 64.7995C63.6755 64.6009 64.5788 64.0086 64.5269 63.3836C64.4699 62.7526 64.5867 56.8813 64.7763 55.7823C64.9658 54.6868 65.112 54.7483 65.8494 54.6212C66.5908 54.4917 69.9275 53.6451 72.8021 49.3697L72.8038 49.3691ZM65.3416 50.8208C66.6404 45.0269 68.6586 42.2764 69.3938 41.3062C70.1295 40.3349 70.6514 40.6712 70.8906 41.2529C71.1197 41.8329 71.3307 43.8031 70.1492 46.28C68.9649 48.7575 66.9823 50.5671 66.2127 51.2473C65.4375 51.921 65.1853 51.4992 65.3416 50.8208ZM81.5276 50.6228C82.4072 50.5877 84.5089 50.5824 87.3621 47.6965C90.2192 44.8084 89.4203 43.2248 89.1557 42.7597C89.0925 42.6431 88.851 42.3789 88.4087 43.0274C87.3508 44.5951 85.1007 45.9847 83.2986 46.5243C81.4971 47.0703 81.1597 44.8576 81.1558 44.5629C81.1456 44.3045 81.3121 44.1487 81.6021 44.0046C81.8909 43.8599 83.3404 43.475 84.8226 42.5447C86.3132 41.6138 90.696 37.9863 89.69 34.9704C88.6891 31.9515 86.3961 32.0277 85.3405 32.3036C84.0914 32.6352 81.931 34.0113 79.8908 37.3178C77.8822 40.5704 76.8424 43.8236 77.0038 46.7381C77.1776 49.689 79.7108 50.6908 81.5276 50.6222V50.6228ZM82.0134 40.6489C83.0854 37.575 84.2177 36.3066 84.8203 35.7835C85.4014 35.2732 85.6452 35.8005 85.8015 36.5369C85.9611 37.2762 85.872 37.9259 85.2971 38.8357C84.7317 39.7467 83.495 40.7977 82.8382 41.1422C82.1787 41.4866 81.8007 41.2629 82.0139 40.6489H82.0134ZM132.432 31.7102C131.372 33.2867 129.13 34.7102 127.319 35.2141C125.675 35.6763 125.365 33.5983 125.368 33.299C125.368 32.8514 125.629 32.7442 125.948 32.6411C126.246 32.5432 127.529 32.347 129.012 31.4149C130.496 30.4822 134.647 26.7768 133.576 23.7826C132.655 21.2172 130.457 21.1358 129.409 21.4134C128.155 21.7403 126.292 22.9062 124.257 26.2085C122.247 29.4652 120.919 32.4987 121.466 35.367C122.012 38.2253 124.056 39.7637 125.827 39.3483C126.685 39.148 128.549 39.2944 131.38 36.3863C134.019 33.6803 133.339 31.9621 133.068 31.4993C133.001 31.3762 132.868 31.0657 132.431 31.7107L132.432 31.7102ZM126.288 29.3275C127.347 26.2548 128.447 25.1681 129.049 24.6467C129.635 24.1364 129.816 24.7352 129.915 25.4932C130.014 26.2431 129.891 26.9256 129.437 27.6561C128.869 28.5712 127.727 29.6638 127.069 30.0036C126.41 30.3481 125.965 30.2514 126.287 29.3275H126.288ZM104.231 34.9645C103.076 39.469 104.276 43.2471 104.368 43.6396C104.458 44.0292 104.39 44.5424 103.613 45.2571C102.821 45.9888 101.028 47.935 100.181 44.7228C99.9665 43.8974 99.7944 39.7526 99.9179 38.3793C98.4995 38.9212 96.7956 39.4497 95.2463 39.8393C94.8672 43.0942 95.1216 45.0737 95.191 45.3579C95.2762 45.7305 95.3134 46.5278 94.4581 47.1312C93.596 47.7428 91.5056 49.4863 91.0046 47.1072C90.85 46.3614 91.2788 41.6548 91.399 40.4462C91.307 40.4421 91.2173 40.4351 91.1394 40.4204C89.9794 40.2335 89.2482 39.0765 90.5369 38.6805C90.9087 38.5639 91.294 38.4438 91.6941 38.3208C92.2758 34.9264 93.3348 31.3182 93.394 30.9257C93.5678 29.8513 95.4872 29.4482 96.6596 29.5086C97.8354 29.5689 97.0501 32.5163 95.8212 36.848C95.7941 36.9335 95.7699 37.0243 95.7462 37.1151C97.5962 36.5785 99.2849 36.0999 100.255 35.8227C100.806 32.477 101.689 29.1295 101.744 28.7482C101.905 27.6239 103.637 27.2519 104.932 27.0891C106.144 26.9414 105.393 30.4611 104.231 34.9651V34.9645ZM119.932 30.7962C118.776 35.3013 119.89 38.6916 119.979 39.0818C120.071 39.469 119.968 40.1884 119.222 40.7772C118.465 41.3665 116.228 43.0385 115.886 40.5552C115.769 39.7022 115.496 35.5849 115.62 34.2111C114.197 34.7553 112.498 35.2814 110.945 35.671C110.572 38.9283 110.829 40.9055 110.894 41.1896C110.983 41.5587 110.637 42.3051 110.535 42.4527C109.797 43.5746 107.793 45.5975 106.668 43.209C106.347 42.5242 106.986 37.4848 107.103 36.2791C107.011 36.275 106.922 36.2656 106.849 36.2528C105.681 36.0635 104.951 34.9112 106.239 34.5111C106.612 34.3945 106.994 34.2761 107.395 34.1537C107.98 30.7564 109.036 27.1506 109.095 26.7586C109.264 25.6789 111.053 25.4639 112.215 25.5864C113.312 25.7071 112.753 28.348 111.525 32.678C111.495 32.7682 111.48 32.8578 111.45 32.9492C113.297 32.4091 114.986 31.9298 115.963 31.6545C116.507 28.3088 117.31 25.5049 117.362 25.1148C117.523 23.997 119.513 23.6109 120.561 23.6408C121.808 23.6777 121.094 26.2935 119.932 30.7968V30.7962ZM30.8437 64.8025C30.3748 65.779 30.0679 66.4194 29.0027 67.0415C27.8201 67.7322 26.0807 67.3327 24.9996 66.6853C23.5242 65.8001 22.9713 64.3865 22.7304 62.6214C22.6322 61.9207 22.5814 61.206 22.582 60.4971C22.582 59.7508 22.6678 59.0026 22.714 58.2557C22.736 57.9112 22.6915 57.613 22.8015 56.9241C22.6954 57.1256 22.2356 58.2674 22.1385 58.4748C21.3656 60.1275 18.8295 66.4815 16.9072 68.7797C16.3441 69.4523 15.0893 70.556 14.2882 70.5882C13.2438 70.6286 11.9884 70.0563 11.4953 69.0949C10.9599 68.0486 10.9949 67.0503 11.053 65.8511C11.1184 64.5136 11.4192 62.8335 11.6336 61.5171C12.0454 58.9985 13.7753 49.9708 14.2362 47.8073C14.5302 46.4276 16.3046 37.2311 13.729 35.5363C14.2718 34.7348 15.587 34.1408 16.5196 34.3271C17.6384 34.5509 18.2032 34.7307 19.1014 35.9798C19.9624 37.1426 19.9195 39.1966 19.8766 40.3132C19.7469 42.458 19.1257 44.4129 18.8238 46.4762C18.6252 47.8395 16.0135 59.3676 15.8482 60.7361C15.7799 61.3091 16 61.7871 16.4017 61.1755C18.2827 58.3149 21.5743 51.4805 25.3178 40.9518C25.7799 39.5534 25.9295 37.4174 26.7611 36.5744C27.4161 35.9106 30.7309 34.869 31.0688 35.6288C31.4474 36.4789 30.0239 40.8364 29.761 42.3379C29.5285 43.6496 29.1878 44.9419 28.9034 46.2431C28.3764 48.6526 27.7665 51.0481 27.3529 53.4794C26.9405 55.8995 26.4226 58.3237 26.8643 60.8287C27.2847 64.0344 30.4939 64.666 30.8437 64.8019V64.8025Z" fill="white"/>
</svg>
