<svg width="134" height="72" viewBox="0 0 134 72" fill="none" xmlns="http://www.w3.org/2000/svg">
<path fill-rule="evenodd" clip-rule="evenodd" d="M0.358154 1.45942H35.6694V14.1402H24.8256V70.7162H11.2019V14.1402H0.358154V1.45942ZM12.8276 12.5145V69.0905H23.1999V12.5145H34.0436V3.08517H1.9839V12.5145H12.8276ZM56.3113 14.419L56.2755 14.3808C55.6967 13.7634 54.871 13.3859 53.5955 13.3859C52.3225 13.3859 51.4397 13.7635 50.7847 14.4184C50.3128 14.8903 49.8465 15.9965 49.8465 18.2664V53.9093C49.8465 56.115 50.2868 57.2888 50.788 57.8528C51.4344 58.4393 52.3197 58.7897 53.5955 58.7897C54.9022 58.7897 55.74 58.4235 56.3119 57.8515C56.8615 57.302 57.3445 56.1429 57.3445 53.9093V18.2664C57.3445 16.018 56.8553 14.929 56.3496 14.4549L56.3113 14.419ZM49.6352 59.0011C48.6922 57.9953 48.2208 56.298 48.2208 53.9093V18.2664C48.2208 15.8776 48.6922 14.2118 49.6352 13.2688C50.641 12.263 51.9611 11.7602 53.5955 11.7602C55.2299 11.7602 56.5186 12.263 57.4615 13.2688C58.4673 14.2118 58.9702 15.8776 58.9702 18.2664V53.9093C58.9702 56.298 58.4673 57.9953 57.4615 59.0011C56.5186 59.944 55.2299 60.4155 53.5955 60.4155C51.9611 60.4155 50.641 59.944 49.6352 59.0011ZM66.4694 66.7183L66.4632 66.7248C63.3683 69.9636 58.9909 71.4706 53.5955 71.4706C48.2001 71.4706 43.8226 69.9636 40.7277 66.7248L40.7215 66.7183L40.7155 66.7118C37.6445 63.4266 36.2228 58.8579 36.2228 53.2492V18.9264C36.2228 13.3242 37.6415 8.77906 40.7214 5.55179C43.8137 2.24776 48.1932 0.705078 53.5955 0.705078C58.9977 0.705078 63.3773 2.24775 66.4696 5.55177C69.5494 8.77904 70.9682 13.3242 70.9682 18.9264V53.2492C70.9682 58.8579 69.5465 63.4266 66.4755 66.7118L66.4694 66.7183ZM65.2878 6.66831C62.5848 3.77665 58.6873 2.33082 53.5955 2.33082C48.5036 2.33082 44.6062 3.77665 41.9031 6.66831C39.2 9.49711 37.8485 13.5832 37.8485 18.9264V53.2492C37.8485 58.5925 39.2 62.71 41.9031 65.6016C44.6062 68.4304 48.5036 69.8448 53.5955 69.8448C58.6873 69.8448 62.5848 68.4304 65.2878 65.6016C67.9909 62.71 69.3425 58.5925 69.3425 53.2492V18.9264C69.3425 13.5832 67.9909 9.49711 65.2878 6.66831ZM84.8451 70.7162H70.6835L85.7234 32.576L70.4643 1.45942H84.2802L95.3027 24.4926V1.45942H109.021V24.4926L120.043 1.45942H133.859L118.6 32.576L133.64 70.7162H119.478L110.266 46.6951L109.021 49.0346V70.7162H95.3027V49.0346L94.0575 46.6951L84.8451 70.7162ZM83.7273 69.0905H73.0722L87.4991 32.5047L73.0722 3.08517H83.2559L96.9284 31.656V3.08517H107.395V31.656L121.067 3.08517H131.251L116.824 32.5047L131.251 69.0905H120.596L110.507 42.7826L107.395 48.6288V69.0905H96.9284V48.6288L93.8167 42.7826L83.7273 69.0905Z" fill="white"/>
</svg>
