<svg xmlns="http://www.w3.org/2000/svg" width="64" height="64" viewBox="0 0 64 64"><g fill="none"><path fill="#FFF" d="m46.85 23.5-.122.6a15.227 15.227 0 0 1-6.247 9.466l-.03.018.026.014a15.753 15.753 0 0 1 4.093 3.359l.287.34a15.751 15.751 0 0 1 3.023 5.873l.17.63h-6.504l-.11-.347c-1.105-3.443-3.731-5.916-6.998-6.47l-.017-.004.001 6.822h-1.118c-10.757 0-17.089-7.342-17.344-19.775l-.01-.51h6.316l.01.49c.133 6.911 2.638 11.274 5.976 12.616l.178.068V23.515h5.992v7.523l.074-.017c2.523-.653 5.167-3.554 6.202-6.879l.083-.278.103-.364h5.967Z"/><path fill="#00558F" d="M45.61 24.5h-3.977l-.065.201c-1.26 3.745-4.363 6.943-7.368 7.4l-.225.03-.553.059v-7.675H29.43v13.492l-.62-.155c-4.062-1.016-7.155-5.61-7.506-12.995l-.015-.342h-4.315l.012.295c.485 11.294 6.24 17.837 15.973 17.988l.345.003.117-.001.001-6.944.55.055c3.746.373 6.811 2.956 8.209 6.645l.088.244h4.457l-.07-.223c-.521-1.548-1.296-3-2.294-4.297l-.278-.35a14.752 14.752 0 0 0-4.837-3.855l-.81-.404.773-.47a14.227 14.227 0 0 0 6.33-8.424l.07-.277Z"/></g></svg>