<svg width="146" height="128" viewBox="0 0 146 128" fill="none" xmlns="http://www.w3.org/2000/svg"><path fill-rule="evenodd" clip-rule="evenodd" d="M112.574.166C136.423 1.841 146 22.704 146 39.086 146 80.234 91.955 94.657 73.011 128 14.425 109.492-3.668 69.505.595 43.692 4.585 19.506 22.275 11.291 35.202 9.3c18.032-2.776 29.67 9.12 29.67 9.12C69.248 14.587 84.37-1.818 112.573.167Z" fill="#00558F"/><path d="M63.438 70.536c-2.83-2.651-6.381-1.779-10.068.151-4.851 2.547-6.194 2.134-6.18 2.464.13 2.693 1.736 1.812 1.736 1.812-.354 5.524-2.822 16.567-3.19 18.487-.362 1.925.531 2.667 2.113 3.057 1.572.391 5.257.447 10.523-3.753 5.262-4.202 5.747-7.73 5.339-9.42-.557-2.32-3.419-2.634-3.419-2.634 3.648-3.587 5.727-7.746 3.146-10.165v.001Zm-8.255 19.617C52.975 92.234 50.5 92.66 50.5 92.66c.375-1.88.861-4.3 1.364-6.758a219.06 219.06 0 0 0 3.84-1.62c.382-.174 1.61-.306 2.1.89.492 1.203-.42 2.898-2.621 4.981Zm.661-10.083c-1.09.794-2.47 1.254-3.08 1.431.792-3.89 1.44-7.028 1.44-7.028.774-.31 1.72-.762 2.062-.925.345-.16 2.344-1.291 2.979.579.639 1.875-1.953 4.897-3.4 5.942v.001Zm25.537 1.407c-2.22-.923-3.22-3.125-2.02-9.21.271-1.384 1.22-3.875 1.254-5.381.033-1.407-1.19-.82-3.041.256 0 0-.08.438-.131.9l-.002-.002c-.266-.157-2.215-1.15-3.686-.506-2.457 1.08-3.5 2.148-5.378 5.389-1.86 3.241-3.209 7.767-2.513 10.085.68 2.314 3.468 3.262 4.895 2.678 1.431-.587 2.627-2.152 3.35-4.05.24-.639.313-.813.572-.154.61 1.562 2.904 2.352 3.924 2.346 1.444-.01 3.766-1.943 2.776-2.353v.002Zm-9.546-.715c-.595.592-.864-.129-.972-.604-.203-.865-.095-1.989 1.057-4.522 1.153-2.53 3.586-4.691 3.586-4.691-1.034 6.075-3.077 9.224-3.671 9.818Zm33.248-7.286c.663.325-.532 1.932-2.33 2.232-.396.066-2.864-.573-3.82-2.684-.247-.535-.5-.122-.575.106-.116.37-1.236 3.693-3.335 4.24-2.102.548-3.895-1.28-4.153-1.722-.27-.441-.34-.058-.407.093-.078.154-1.373 3.818-3.378 4.433-2.006.613-4.452-.983-4.972-2.91-.517-1.924.244-5.35 2.141-10.746.423-1.197.533-1.394 1.55-1.945 1.757-.964 3.793-1.514 3.2.24-.638 1.882-1.516 5.783-1.75 7.11-.23 1.326-.425 2.313.031 3.425.446 1.107 2.003-1.001 2.588-3.264.581-2.266 1.816-7.797 1.964-8.23.153-.434.153-.633 1.145-1.103 1.46-.7 3.337-.922 3.104.118-.288 1.27-.95 6.45-1.01 7.486-.053 1.04.146 1.807.313 2.103.164.294.394.315.752.088.363-.228 1.229-1.227 1.891-3.776.705-2.71 1.173-6.271 1.46-7.098.306-.87.908-1.16 1.335-1.275 2.932-.8 2.92-.882 2.963.997.051 2.448-1.606 10.64 1.293 12.082Zm-68.288-23.69c-2.118 2.032-2.388 5.255-2.491 6.379-.092 1.065.692 2.88 2.115 2.815 2.053-.096 4.342-2.877 4.838-3.489.316-.392.403-.684.709.202.438 1.272.117 2.815-.883 4.429-1.04 1.666-4 3.689-6.483 3.392-2.337-.271-3.94-1.57-4.688-4.114-.75-2.54.479-5.947 1.596-8.134 1.045-2.027 3.527-5.861 6.386-6.677 2.859-.823 4.338.12 4.69 1.228.755 2.417-.61 3.83-.72 3.996-.106.161-.431.368-.46.071-.04-.36-1.678-2.91-4.61-.098h.001Zm11.212 10.282c-3.523 2.14-3.98 2.006-3.674-1.023.317-3.024 1.727-13.382 1.745-14.746 0-.643.47-1.77 1.339-2.072 1.027-.351 2.371-.947 2.686.088.307 1.036-.359 3.897-.488 4.573-.13.677.397.71.704.256.168-.248.44-.664.75-1.163.801-2.047 1.826-4.008 2.997-4.657 2.622-1.452 4.52-.637 4.874.468.758 2.419-.61 3.832-.714 3.998-.105.164-.256.272-.466.071-1.222-1.172-2.164-1.166-3.524.046-1.34 1.414-2.645 3.206-2.645 3.206s1.019.231 2.25 2.469c1.248 2.249 2.177 3.832 4.417 3.821.643-.002.906.207.419.972-.687 1.083-1.945 2.236-4.047 1.644-2.106-.6-3.927-3.67-4.26-4.26-.326-.59-.75-.746-.985.024-.236.774-.335 1.86-.634 4.158-.071.54.011 1.667-.743 2.126v.001ZM72.805 49.37c2.885-4.278 3.62-7.548 3.174-9.565-.439-2.015-2.737-4.383-4.52-3.745-1.773.635-3.706 4.05-3.984 4.468-.457.667-.866.728-.803-.099.057-.83 1-2.872.4-3.358-.592-.483-2.624.282-3.247.427-.313.073-.988.323-1.145 1.63-.085.67-.893 6.772-1.312 10.308-.415 3.539-1.265 12.922-1.408 15.483-.118 2.05 2.45.683 3.471-.119.245-.198 1.149-.79 1.097-1.415-.057-.631.06-6.503.25-7.602.189-1.095.335-1.034 1.072-1.16.742-.13 4.078-.977 6.953-5.252h.002Zm-7.462 1.452c1.298-5.794 3.317-8.545 4.052-9.515.735-.971 1.257-.635 1.497-.053.229.58.44 2.55-.742 5.027-1.184 2.477-3.167 4.287-3.936 4.967-.775.674-1.028.252-.871-.426Zm16.186-.198c.88-.035 2.98-.04 5.834-2.926 2.857-2.889 2.058-4.472 1.794-4.937-.064-.117-.305-.381-.747.267-1.058 1.568-3.308 2.958-5.11 3.497-1.802.546-2.14-1.666-2.143-1.961-.01-.259.156-.414.446-.558.289-.145 1.738-.53 3.22-1.46 1.491-.931 5.874-4.559 4.868-7.575-1-3.018-3.294-2.942-4.35-2.666-1.249.331-3.409 1.707-5.45 5.014-2.008 3.252-3.048 6.506-2.886 9.42.174 2.951 2.707 3.953 4.524 3.884Zm.485-9.974c1.072-3.074 2.205-4.342 2.807-4.866.581-.51.825.017.982.754.16.74.07 1.389-.505 2.299-.565.91-1.802 1.962-2.459 2.306-.66.345-1.037.12-.824-.493Zm50.419-8.939c-1.06 1.577-3.302 3-5.113 3.504-1.644.462-1.954-1.616-1.951-1.915 0-.448.261-.555.58-.658.298-.098 1.581-.294 3.064-1.226 1.484-.933 5.635-4.638 4.564-7.632-.921-2.566-3.119-2.647-4.167-2.37-1.254.327-3.117 1.493-5.152 4.796-2.01 3.256-3.338 6.29-2.791 9.158.546 2.858 2.59 4.397 4.361 3.981.858-.2 2.722-.054 5.553-2.962 2.639-2.706 1.959-4.424 1.688-4.887-.067-.123-.2-.433-.637.212h.001Zm-6.144-2.383c1.059-3.072 2.159-4.159 2.761-4.68.586-.51.767.088.866.846.099.75-.024 1.433-.478 2.163-.568.915-1.71 2.008-2.368 2.348-.659.344-1.104.247-.782-.677h.001Zm-22.057 5.637c-1.155 4.505.045 8.283.137 8.676.09.39.022.902-.755 1.617-.792.732-2.585 2.678-3.432-.534-.215-.826-.387-4.97-.263-6.344a43.328 43.328 0 0 1-4.672 1.46c-.379 3.255-.124 5.235-.055 5.519.085.373.122 1.17-.733 1.773-.862.612-2.952 2.355-3.453-.024-.155-.746.274-5.452.394-6.66a1.9 1.9 0 0 1-.26-.027c-1.16-.187-1.89-1.343-.602-1.74l1.157-.36c.582-3.394 1.64-7.002 1.7-7.394.174-1.075 2.093-1.478 3.266-1.417 1.175.06.39 3.007-.839 7.339a5.452 5.452 0 0 0-.075.267c1.85-.537 3.539-1.015 4.509-1.292.551-3.346 1.434-6.694 1.489-7.075.161-1.124 1.893-1.496 3.188-1.659 1.212-.148.461 3.372-.701 7.876Zm15.701-4.168c-1.156 4.505-.042 7.896.047 8.286.092.387-.011 1.106-.757 1.695-.757.59-2.994 2.261-3.336-.222-.117-.853-.39-4.97-.266-6.344a42.942 42.942 0 0 1-4.675 1.46c-.373 3.257-.116 5.235-.051 5.519.089.369-.257 1.115-.359 1.263-.738 1.122-2.742 3.144-3.867.756-.321-.685.318-5.724.435-6.93a2.045 2.045 0 0 1-.254-.026c-1.168-.19-1.898-1.342-.61-1.742.373-.117.755-.235 1.156-.357.585-3.398 1.641-7.003 1.7-7.395.169-1.08 1.958-1.295 3.12-1.173 1.097.121.538 2.762-.69 7.092-.03.09-.045.18-.075.271a491.9 491.9 0 0 1 4.513-1.294c.544-3.346 1.347-6.15 1.399-6.54.161-1.118 2.151-1.504 3.199-1.474 1.247.037.533 2.653-.629 7.156ZM30.844 64.802c-.47.977-.776 1.617-1.841 2.24-1.183.69-2.922.29-4.003-.357-1.476-.885-2.029-2.299-2.27-4.064-.098-.7-.149-1.415-.148-2.124 0-.746.086-1.494.132-2.241.022-.345-.022-.643.088-1.332-.107.202-.566 1.343-.663 1.55-.773 1.654-3.31 8.008-5.232 10.306-.563.672-1.818 1.776-2.619 1.808-1.044.04-2.3-.532-2.793-1.493-.535-1.046-.5-2.045-.442-3.244.065-1.337.366-3.017.58-4.334.412-2.519 2.142-11.546 2.603-13.71.294-1.38 2.069-10.576-.507-12.27.543-.802 1.858-1.396 2.79-1.21 1.12.224 1.684.404 2.582 1.653.861 1.163.819 3.217.776 4.333-.13 2.145-.751 4.1-1.053 6.163-.199 1.364-2.81 12.892-2.976 14.26-.068.573.152 1.051.554.44 1.88-2.861 5.172-9.696 8.916-20.224.462-1.399.611-3.535 1.443-4.378.655-.663 3.97-1.705 4.308-.945.378.85-1.045 5.207-1.308 6.709-.232 1.312-.573 2.604-.858 3.905-.527 2.41-1.136 4.805-1.55 7.236-.413 2.42-.93 4.845-.489 7.35.42 3.205 3.63 3.837 3.98 3.973Z" fill="#fff"/></svg>