<svg width="134" height="72" viewBox="0 0 134 72" fill="none" xmlns="http://www.w3.org/2000/svg"><path fill-rule="evenodd" clip-rule="evenodd" d="M.358 1.46H35.67v12.68H24.826v56.576H11.202V14.14H.358V1.46Zm12.47 11.055V69.09H23.2V12.515h10.844v-9.43H1.984v9.43h10.844Zm43.483 1.904-.035-.038c-.58-.618-1.405-.995-2.68-.995-1.273 0-2.156.378-2.811 1.032-.472.472-.938 1.579-.938 3.848V53.91c0 2.206.44 3.38.941 3.944.646.586 1.532.937 2.808.937 1.306 0 2.144-.367 2.716-.938.55-.55 1.032-1.71 1.032-3.943V18.266c0-2.248-.489-3.337-.994-3.811l-.039-.036Zm-6.676 44.582c-.943-1.006-1.414-2.703-1.414-5.092V18.266c0-2.388.471-4.054 1.414-4.997 1.006-1.006 2.326-1.509 3.96-1.509 1.635 0 2.924.503 3.867 1.509 1.005.943 1.508 2.609 1.508 4.997V53.91c0 2.389-.503 4.086-1.508 5.092-.943.943-2.232 1.415-3.867 1.415-1.634 0-2.954-.472-3.96-1.415Zm16.834 7.717-.006.007c-3.095 3.239-7.472 4.746-12.867 4.746-5.396 0-9.773-1.507-12.868-4.746l-.007-.007-.005-.006c-3.072-3.285-4.493-7.854-4.493-13.463V18.926c0-5.602 1.419-10.147 4.498-13.374C43.814 2.248 48.193.705 53.596.705c5.402 0 9.781 1.543 12.874 4.847 3.08 3.227 4.498 7.772 4.498 13.374V53.25c0 5.609-1.422 10.178-4.493 13.463l-.006.006Zm-1.181-60.05c-2.703-2.891-6.6-4.337-11.692-4.337-5.092 0-8.99 1.446-11.693 4.337-2.703 2.83-4.054 6.915-4.054 12.258V53.25c0 5.343 1.351 9.461 4.054 12.353 2.703 2.828 6.6 4.243 11.693 4.243 5.091 0 8.989-1.415 11.692-4.243 2.703-2.892 4.055-7.01 4.055-12.353V18.926c0-5.343-1.352-9.429-4.055-12.258Zm19.557 64.048H70.683l15.04-38.14L70.464 1.459H84.28l11.023 23.034V1.459h13.718v23.034l11.022-23.034h13.816L118.6 32.576l15.04 38.14h-14.162l-9.212-24.02-1.245 2.339v21.681H95.303V49.035l-1.245-2.34-9.213 24.021Zm-1.118-1.625H73.072L87.5 32.505 73.072 3.085h10.184l13.672 28.571V3.086h10.467v28.57l13.672-28.57h10.184l-14.427 29.419 14.427 36.586h-10.655l-10.089-26.308-3.112 5.846V69.09H96.928V48.629l-3.111-5.846-10.09 26.308Z" fill="#fff"/></svg>