<svg width="270" height="265" viewBox="0 0 270 265" fill="none" xmlns="http://www.w3.org/2000/svg"><path d="M.579.25h34.966v10.284H23.718V72.24H12.405V10.534H.58V.25ZM13.948 151.326c0 2.605.514 4.456 1.543 5.553 1.097 1.029 2.537 1.543 4.32 1.543 1.782 0 3.187-.514 4.216-1.543 1.097-1.097 1.645-2.948 1.645-5.553v-38.875c0-2.605-.548-4.422-1.645-5.45-1.029-1.097-2.434-1.646-4.217-1.646-1.782 0-3.222.549-4.32 1.646-1.028 1.028-1.542 2.845-1.542 5.45v38.875ZM2.635 113.171c0-5.828 1.475-10.284 4.423-13.37 2.948-3.153 7.199-4.73 12.752-4.73 5.554 0 9.805 1.577 12.753 4.73 2.948 3.086 4.422 7.542 4.422 13.37v37.435c0 5.828-1.474 10.318-4.422 13.472-2.949 3.085-7.2 4.628-12.753 4.628s-9.804-1.543-12.752-4.628c-2.948-3.154-4.423-7.644-4.423-13.472v-37.435ZM12.2 263.527H.579l15.735-39.903L.579 191.537h11.107l14.912 31.161v-31.161h11.415v31.161l14.913-31.161h11.106l-15.734 32.087 15.734 39.903h-11.62l-11.005-28.693-3.394 6.376v22.317H26.598V241.21l-3.394-6.376L12.2 263.527ZM76.243 263.528h-8.135v-50.393h7.055v30.163l8.135-30.163h9.934v50.393h-7.127v-36.499l-9.862 36.499ZM111.785 225.517c0-2.256-.384-3.767-1.152-4.535-.72-.816-1.704-1.224-2.952-1.224s-2.255.384-3.023 1.152c-.72.72-1.08 1.991-1.08 3.815v5.399h-7.487v-4.895c0-4.079.984-7.199 2.952-9.359 2.015-2.207 4.967-3.311 8.854-3.311 3.888 0 6.815 1.104 8.783 3.311 2.016 2.16 3.024 5.28 3.024 9.359v1.296c0 5.375-1.848 8.831-5.544 10.366 2.016.864 3.432 2.208 4.248 4.032.864 1.776 1.296 3.959 1.296 6.551v3.959c0 4.08-1.008 7.223-3.024 9.431-1.968 2.16-4.895 3.24-8.783 3.24-3.887 0-6.839-1.08-8.855-3.24-1.967-2.208-2.951-5.351-2.951-9.431v-6.335h7.487v6.839c0 1.824.36 3.12 1.08 3.888.768.72 1.775 1.08 3.023 1.08 1.248 0 2.232-.384 2.952-1.152.768-.768 1.152-2.28 1.152-4.536v-3.959c0-2.352-.408-4.008-1.224-4.967-.816-.96-2.136-1.44-3.96-1.44h-1.223v-7.199h1.655c1.488 0 2.64-.384 3.456-1.152.864-.768 1.296-2.16 1.296-4.175v-2.808ZM130.48 263.528h-7.919v-50.393h7.919v21.597h8.999v-21.597h8.063v50.393h-8.063v-21.597h-8.999v21.597ZM159.259 263.528h-8.135v-50.393h7.055v30.163l8.135-30.163h9.934v50.393h-7.127v-36.499l-9.862 36.499ZM50.03 136.414h3.743c3.984 0 6.935 1.056 8.855 3.168 1.968 2.112 2.952 5.207 2.952 9.286v6.552c0 4.079-.984 7.175-2.952 9.286-1.92 2.112-4.871 3.168-8.855 3.168H42.111v-50.393h20.95v7.199H50.03v11.734Zm3.743 24.261c1.248 0 2.208-.336 2.88-1.008.672-.672 1.008-1.92 1.008-3.744v-7.558c0-1.824-.336-3.072-1.008-3.744-.672-.672-1.632-1.008-2.88-1.008H50.03v17.062h3.743ZM79.735 117.481c3.983 0 6.935 1.056 8.855 3.167 1.967 2.112 2.951 5.208 2.951 9.287v6.551c0 4.08-.984 7.175-2.951 9.287-1.92 2.112-4.872 3.167-8.855 3.167H75.99v18.934h-7.919v-50.393h11.663Zm-3.744 7.199v17.062h3.744c1.248 0 2.207-.336 2.88-1.008.671-.672 1.007-1.92 1.007-3.744v-7.559c0-1.823-.336-3.071-1.008-3.743-.672-.672-1.631-1.008-2.88-1.008h-3.743ZM118.536 167.874h-7.991l-1.368-9.143h-9.719l-1.367 9.143H90.82l8.062-50.393h11.591l8.063 50.393Zm-18.07-15.982h7.631l-3.815-25.484-3.816 25.484ZM134.969 129.863c0-2.255-.384-3.767-1.152-4.535-.72-.816-1.704-1.224-2.952-1.224-1.247 0-2.255.384-3.023 1.152-.72.72-1.08 1.992-1.08 3.815v5.4h-7.487v-4.896c0-4.079.984-7.199 2.952-9.358 2.015-2.208 4.967-3.312 8.854-3.312 3.888 0 6.815 1.104 8.783 3.312 2.016 2.159 3.024 5.279 3.024 9.358v1.296c0 5.375-1.848 8.831-5.543 10.367 2.015.863 3.431 2.207 4.247 4.031.864 1.776 1.296 3.959 1.296 6.551v3.96c0 4.079-1.008 7.222-3.024 9.43-1.968 2.16-4.895 3.24-8.783 3.24-3.887 0-6.839-1.08-8.854-3.24-1.968-2.208-2.952-5.351-2.952-9.43v-6.336h7.487v6.839c0 1.824.36 3.12 1.08 3.888.768.72 1.776 1.08 3.023 1.08 1.248 0 2.232-.384 2.952-1.152.768-.768 1.152-2.28 1.152-4.535v-3.96c0-2.352-.408-4.007-1.224-4.967-.816-.96-2.136-1.44-3.959-1.44h-1.224v-7.199h1.656c1.487 0 2.639-.384 3.455-1.152.864-.768 1.296-2.159 1.296-4.175v-2.808Z" fill="#fff"/><path d="M41.32 21.828c4.128 0 7.103.96 8.927 2.88 1.872 1.92 2.808 4.823 2.808 8.71v1.8c0 2.592-.408 4.727-1.224 6.407-.816 1.68-2.112 2.928-3.888 3.744 2.16.816 3.672 2.16 4.536 4.031.912 1.824 1.368 4.08 1.368 6.767v4.103c0 3.888-1.008 6.863-3.024 8.927-2.016 2.016-5.015 3.024-8.999 3.024H29.37V21.828h11.95ZM37.29 49.544v15.478h4.535c1.344 0 2.352-.36 3.024-1.08.72-.72 1.08-2.016 1.08-3.888v-4.39c0-2.352-.408-3.96-1.224-4.824-.768-.864-2.064-1.296-3.888-1.296H37.29Zm0-20.517v13.318h3.096c1.487 0 2.64-.384 3.455-1.152.864-.768 1.296-2.16 1.296-4.175V34.21c0-1.824-.336-3.143-1.008-3.96-.624-.815-1.632-1.223-3.023-1.223h-3.816ZM63.585 60.63c0 1.824.36 3.12 1.08 3.888.768.72 1.775 1.08 3.023 1.08 1.248 0 2.232-.36 2.952-1.08.768-.768 1.152-2.064 1.152-3.888V33.418c0-1.823-.384-3.095-1.152-3.815-.72-.768-1.704-1.152-2.952-1.152s-2.255.384-3.023 1.152c-.72.72-1.08 1.992-1.08 3.815V60.63Zm-7.919-26.708c0-4.08 1.032-7.199 3.096-9.358 2.063-2.208 5.039-3.312 8.926-3.312 3.888 0 6.863 1.104 8.927 3.312 2.064 2.16 3.096 5.279 3.096 9.358v26.205c0 4.079-1.032 7.223-3.096 9.43-2.064 2.16-5.04 3.24-8.927 3.24-3.887 0-6.863-1.08-8.926-3.24-2.064-2.207-3.096-5.351-3.096-9.43V33.922ZM94.22 21.828c3.984 0 6.936 1.056 8.855 3.168 1.968 2.111 2.952 5.207 2.952 9.286v6.551c0 4.08-.984 7.175-2.952 9.287-1.919 2.112-4.871 3.168-8.855 3.168h-3.743V72.22h-7.919V21.828H94.22Zm-3.743 7.199v17.062h3.743c1.248 0 2.208-.336 2.88-1.008.672-.672 1.008-1.92 1.008-3.744v-7.559c0-1.823-.336-3.071-1.008-3.743-.672-.672-1.632-1.008-2.88-1.008h-3.743ZM114.664 60.63c0 1.824.36 3.12 1.08 3.888.768.72 1.776 1.08 3.023 1.08 1.248 0 2.232-.36 2.952-1.08.768-.768 1.152-2.064 1.152-3.888V33.418c0-1.823-.384-3.095-1.152-3.815-.72-.768-1.704-1.152-2.952-1.152-1.247 0-2.255.384-3.023 1.152-.72.72-1.08 1.992-1.08 3.815V60.63Zm-7.919-26.708c0-4.08 1.032-7.199 3.096-9.358 2.063-2.208 5.039-3.312 8.926-3.312 3.888 0 6.863 1.104 8.927 3.312 2.064 2.16 3.096 5.279 3.096 9.358v26.205c0 4.079-1.032 7.223-3.096 9.43-2.064 2.16-5.039 3.24-8.927 3.24-3.887 0-6.863-1.08-8.926-3.24-2.064-2.207-3.096-5.351-3.096-9.43V33.922ZM139.612 72.22h-8.135l11.015-27.931-11.015-22.461h7.775l10.439 21.813V21.828h7.991v21.813l10.438-21.813h7.775l-11.014 22.46 11.014 27.933h-8.135l-7.703-20.085-2.375 4.463v15.622h-7.991V56.599l-2.376-4.463-7.703 20.085ZM185.234 72.22h-7.919V21.829h7.919v21.597h8.998V21.828h8.063v50.393h-8.063V50.624h-8.998V72.22ZM217.54 65.022c1.247 0 2.207-.336 2.879-1.008.672-.672 1.008-1.92 1.008-3.743v-7.56c0-1.823-.336-3.071-1.008-3.743-.672-.672-1.632-1.008-2.879-1.008h-3.744v17.062h3.744Zm-11.663 7.199V21.828h7.919v18.933h3.744c3.983 0 6.935 1.056 8.854 3.168 1.968 2.111 2.952 5.207 2.952 9.286v6.552c0 4.079-.984 7.175-2.952 9.286-1.919 2.112-4.871 3.168-8.854 3.168h-11.663Zm27.356-50.393h7.919v50.393h-7.919V21.828ZM252.909 72.22h-8.135V21.829h7.055v30.164l8.135-30.164h9.935v50.393h-7.127V35.722l-9.863 36.499Zm13.246-59.103v5.903h-17.421v-5.903h17.421Z" fill="#fff"/></svg>